<svg width="100" height="44" viewBox="0 0 100 44" fill="none" xmlns="http://www.w3.org/2000/svg">
<path d="M11.548 35L0.676 9.8H6.976L16.48 32.12H12.772L22.42 9.8H28.216L17.308 35H11.548ZM40.3626 35V31.22L40.0026 30.392V23.624C40.0026 22.424 39.6306 21.488 38.8866 20.816C38.1666 20.144 37.0506 19.808 35.5386 19.808C34.5066 19.808 33.4866 19.976 32.4786 20.312C31.4946 20.624 30.6546 21.056 29.9586 21.608L27.9426 17.684C28.9986 16.94 30.2706 16.364 31.7586 15.956C33.2466 15.548 34.7586 15.344 36.2946 15.344C39.2466 15.344 41.5386 16.04 43.1706 17.432C44.8026 18.824 45.6186 20.996 45.6186 23.948V35H40.3626ZM34.4586 35.288C32.9466 35.288 31.6506 35.036 30.5706 34.532C29.4906 34.004 28.6626 33.296 28.0866 32.408C27.5106 31.52 27.2226 30.524 27.2226 29.42C27.2226 28.268 27.4986 27.26 28.0506 26.396C28.6266 25.532 29.5266 24.86 30.7506 24.38C31.9746 23.876 33.5706 23.624 35.5386 23.624H40.6866V26.9H36.1506C34.8306 26.9 33.9186 27.116 33.4146 27.548C32.9346 27.98 32.6946 28.52 32.6946 29.168C32.6946 29.888 32.9706 30.464 33.5226 30.896C34.0986 31.304 34.8786 31.508 35.8626 31.508C36.7986 31.508 37.6386 31.292 38.3826 30.86C39.1266 30.404 39.6666 29.744 40.0026 28.88L40.8666 31.472C40.4586 32.72 39.7146 33.668 38.6346 34.316C37.5546 34.964 36.1626 35.288 34.4586 35.288ZM60.202 35.288C58.114 35.288 56.254 34.868 54.622 34.028C52.99 33.164 51.706 31.976 50.77 30.464C49.858 28.952 49.402 27.236 49.402 25.316C49.402 23.372 49.858 21.656 50.77 20.168C51.706 18.656 52.99 17.48 54.622 16.64C56.254 15.776 58.114 15.344 60.202 15.344C62.242 15.344 64.018 15.776 65.53 16.64C67.042 17.48 68.158 18.692 68.878 20.276L64.522 22.616C64.018 21.704 63.382 21.032 62.614 20.6C61.87 20.168 61.054 19.952 60.166 19.952C59.206 19.952 58.342 20.168 57.574 20.6C56.806 21.032 56.194 21.644 55.738 22.436C55.306 23.228 55.09 24.188 55.09 25.316C55.09 26.444 55.306 27.404 55.738 28.196C56.194 28.988 56.806 29.6 57.574 30.032C58.342 30.464 59.206 30.68 60.166 30.68C61.054 30.68 61.87 30.476 62.614 30.068C63.382 29.636 64.018 28.952 64.522 28.016L68.878 30.392C68.158 31.952 67.042 33.164 65.53 34.028C64.018 34.868 62.242 35.288 60.202 35.288ZM84.5709 35.432C82.6029 35.432 80.7669 35.108 79.0629 34.46C77.3829 33.812 75.9189 32.9 74.6709 31.724C73.4469 30.548 72.4869 29.168 71.7909 27.584C71.1189 26 70.7829 24.272 70.7829 22.4C70.7829 20.528 71.1189 18.8 71.7909 17.216C72.4869 15.632 73.4589 14.252 74.7069 13.076C75.9549 11.9 77.4189 10.988 79.0989 10.34C80.7789 9.692 82.6029 9.368 84.5709 9.368C86.5629 9.368 88.3869 9.692 90.0429 10.34C91.7229 10.988 93.1749 11.9 94.3989 13.076C95.6469 14.228 96.6189 15.596 97.3149 17.18C98.0109 18.764 98.3589 20.504 98.3589 22.4C98.3589 24.272 98.0109 26.012 97.3149 27.62C96.6189 29.204 95.6469 30.584 94.3989 31.76C93.1749 32.912 91.7229 33.812 90.0429 34.46C88.3869 35.108 86.5629 35.432 84.5709 35.432ZM92.8149 40.796C91.8309 40.796 90.8949 40.688 90.0069 40.472C89.1429 40.256 88.2789 39.908 87.4149 39.428C86.5749 38.948 85.6869 38.3 84.7509 37.484C83.8389 36.668 82.8429 35.66 81.7629 34.46L87.8829 32.912C88.5309 33.8 89.1309 34.508 89.6829 35.036C90.2349 35.564 90.7629 35.936 91.2669 36.152C91.7949 36.368 92.3469 36.476 92.9229 36.476C94.4589 36.476 95.8269 35.852 97.0269 34.604L99.6189 37.7C97.9149 39.764 95.6469 40.796 92.8149 40.796ZM84.5709 30.464C85.6989 30.464 86.7309 30.272 87.6669 29.888C88.6269 29.504 89.4669 28.952 90.1869 28.232C90.9069 27.512 91.4589 26.66 91.8429 25.676C92.2509 24.668 92.4549 23.576 92.4549 22.4C92.4549 21.2 92.2509 20.108 91.8429 19.124C91.4589 18.14 90.9069 17.288 90.1869 16.568C89.4669 15.848 88.6269 15.296 87.6669 14.912C86.7309 14.528 85.6989 14.336 84.5709 14.336C83.4429 14.336 82.3989 14.528 81.4389 14.912C80.4789 15.296 79.6389 15.848 78.9189 16.568C78.2229 17.288 77.6709 18.14 77.2629 19.124C76.8789 20.108 76.6869 21.2 76.6869 22.4C76.6869 23.576 76.8789 24.668 77.2629 25.676C77.6709 26.66 78.2229 27.512 78.9189 28.232C79.6389 28.952 80.4789 29.504 81.4389 29.888C82.3989 30.272 83.4429 30.464 84.5709 30.464Z" fill="white"/>
<path d="M2.5 42.5H68" stroke="#17C2EC" stroke-width="3" stroke-linecap="round"/>
</svg>
